<svg xmlns="http://www.w3.org/2000/svg" width="110.192" height="77.135" viewBox="0 0 110.192 77.135">
  <path id="Icon_awesome-users" data-name="Icon awesome-users" d="M16.529,35.308A11.019,11.019,0,1,0,5.51,24.288,11.029,11.029,0,0,0,16.529,35.308Zm77.135,0A11.019,11.019,0,1,0,82.644,24.288,11.029,11.029,0,0,0,93.664,35.308Zm5.51,5.51H88.154a10.987,10.987,0,0,0-7.765,3.2,25.185,25.185,0,0,1,12.93,18.836h11.364a5.5,5.5,0,0,0,5.51-5.51v-5.51A11.029,11.029,0,0,0,99.173,40.817Zm-44.077,0A19.284,19.284,0,1,0,35.813,21.534,19.274,19.274,0,0,0,55.1,40.817Zm13.223,5.51H66.89a26.624,26.624,0,0,1-23.588,0H41.873A19.84,19.84,0,0,0,22.038,66.162V71.12A8.267,8.267,0,0,0,30.3,79.385H79.889a8.267,8.267,0,0,0,8.264-8.264V66.162A19.84,19.84,0,0,0,68.319,46.327ZM29.8,44.02a10.987,10.987,0,0,0-7.765-3.2H11.019A11.029,11.029,0,0,0,0,51.837v5.51a5.5,5.5,0,0,0,5.51,5.51H16.856A25.248,25.248,0,0,1,29.8,44.02Z" transform="translate(0 -2.25)" fill="#238873"/>
</svg>
