<svg xmlns="http://www.w3.org/2000/svg" width="77.135" height="88.151" viewBox="0 0 77.135 88.151">
  <path id="Icon_awesome-user-secret" data-name="Icon awesome-user-secret" d="M66.1,53.08,70.213,42.3a2.751,2.751,0,0,0-2.583-3.736H57.558a21.832,21.832,0,0,0,3.065-11.019v-.052c6.749-1.343,11.019-3.289,11.019-5.458,0-2.29-4.7-4.322-12.07-5.682A44.665,44.665,0,0,0,52.582,2.1a5.528,5.528,0,0,0-6.8-1.515L41.029,2.96a5.507,5.507,0,0,1-4.924,0L31.353.584a5.528,5.528,0,0,0-6.8,1.515,45.026,45.026,0,0,0-6.99,14.256C10.21,17.715,5.51,19.747,5.51,22.037c0,2.169,4.27,4.115,11.019,5.458v.052a21.832,21.832,0,0,0,3.065,11.019h-9.9a2.753,2.753,0,0,0-2.531,3.84L11.6,52.77A23.065,23.065,0,0,0,0,72.725v7.713a7.723,7.723,0,0,0,7.713,7.713H69.421a7.723,7.723,0,0,0,7.713-7.713V72.725A23.073,23.073,0,0,0,66.1,53.08ZM30.3,82.643,23.14,49.585l8.54,5.51,4.132,6.887Zm16.529,0-5.51-20.661,4.132-6.887,8.54-5.51Zm7.18-51.394C53.34,33.3,52.806,35.484,51.171,37c-1.739,1.6-8.264,3.857-11.019-4.3a1.686,1.686,0,0,0-3.151,0c-2.927,8.643-9.642,5.578-11.019,4.3-1.636-1.515-2.187-3.7-2.841-5.751-.138-.43-1.085-.981-1.085-1V28.39a132.588,132.588,0,0,0,16.529,1,129.365,129.365,0,0,0,16.529-1V30.25C55.1,30.267,54.149,30.8,54.011,31.248Z" transform="translate(0 -0.001)" fill="#238873"/>
</svg>
