<svg xmlns="http://www.w3.org/2000/svg" width="77.135" height="88.154" viewBox="0 0 77.135 88.154">
  <path id="Icon_awesome-building" data-name="Icon awesome-building" d="M75.069,82.644H71.625V4.132A4.132,4.132,0,0,0,67.493,0H9.642A4.132,4.132,0,0,0,5.51,4.132V82.644H2.066A2.066,2.066,0,0,0,0,84.71v3.444H77.135V84.71A2.066,2.066,0,0,0,75.069,82.644ZM22.038,13.085A2.066,2.066,0,0,1,24.1,11.019h6.887a2.066,2.066,0,0,1,2.066,2.066v6.887a2.066,2.066,0,0,1-2.066,2.066H24.1a2.066,2.066,0,0,1-2.066-2.066Zm0,16.529A2.066,2.066,0,0,1,24.1,27.548h6.887a2.066,2.066,0,0,1,2.066,2.066V36.5a2.066,2.066,0,0,1-2.066,2.066H24.1A2.066,2.066,0,0,1,22.038,36.5ZM30.992,55.1H24.1a2.066,2.066,0,0,1-2.066-2.066V46.143A2.066,2.066,0,0,1,24.1,44.077h6.887a2.066,2.066,0,0,1,2.066,2.066V53.03A2.066,2.066,0,0,1,30.992,55.1ZM44.077,82.644H33.058V68.181a2.066,2.066,0,0,1,2.066-2.066h6.887a2.066,2.066,0,0,1,2.066,2.066ZM55.1,53.03A2.066,2.066,0,0,1,53.03,55.1H46.143a2.066,2.066,0,0,1-2.066-2.066V46.143a2.066,2.066,0,0,1,2.066-2.066H53.03A2.066,2.066,0,0,1,55.1,46.143Zm0-16.529a2.066,2.066,0,0,1-2.066,2.066H46.143A2.066,2.066,0,0,1,44.077,36.5V29.614a2.066,2.066,0,0,1,2.066-2.066H53.03A2.066,2.066,0,0,1,55.1,29.614Zm0-16.529a2.066,2.066,0,0,1-2.066,2.066H46.143a2.066,2.066,0,0,1-2.066-2.066V13.085a2.066,2.066,0,0,1,2.066-2.066H53.03A2.066,2.066,0,0,1,55.1,13.085Z" fill="#238873"/>
</svg>
