<svg xmlns="http://www.w3.org/2000/svg" width="77.135" height="88.154" viewBox="0 0 77.135 88.154">
  <path id="Icon_awesome-user-nurse" data-name="Icon awesome-user-nurse" d="M9.948,49.587h14.18a21.674,21.674,0,0,0,28.877,0h14.18A2.755,2.755,0,0,0,69.645,45.6a116.366,116.366,0,0,1-7.257-16.45,39.958,39.958,0,0,1-1.782-12.41V8.264L38.567,0,16.529,8.264v8.471a39.9,39.9,0,0,1-1.779,12.41A116.511,116.511,0,0,1,7.49,45.6a2.755,2.755,0,0,0,2.459,3.991ZM31.68,12.34a.861.861,0,0,1,.861-.861h3.731V7.748a.861.861,0,0,1,.861-.861H40a.861.861,0,0,1,.861.861v3.731h3.731a.861.861,0,0,1,.861.861v2.868a.861.861,0,0,1-.861.861H40.862V19.8a.861.861,0,0,1-.861.861H37.133a.861.861,0,0,1-.861-.861V16.069H32.541a.861.861,0,0,1-.861-.861ZM24.793,27.548H52.341v5.51a13.774,13.774,0,0,1-27.548,0ZM54.995,55.1,38.567,71.52,22.14,55.1A23.088,23.088,0,0,0,0,78.131,10.022,10.022,0,0,0,10.022,88.154h57.09A10.022,10.022,0,0,0,77.135,78.131,23.088,23.088,0,0,0,54.995,55.1Z" fill="#238873"/>
</svg>
