<svg xmlns="http://www.w3.org/2000/svg" width="27.106" height="27.106" viewBox="0 0 27.106 27.106">
  <path id="Icon_feather-phone-call" data-name="Icon feather-phone-call" d="M18.653,6.278A5.979,5.979,0,0,1,23.38,11M18.653,1.5a10.761,10.761,0,0,1,9.515,9.485m-1.2,9.533V24.1a2.392,2.392,0,0,1-2.609,2.389,23.715,23.715,0,0,1-10.329-3.667,23.316,23.316,0,0,1-7.181-7.167A23.611,23.611,0,0,1,3.178,5.3a2.391,2.391,0,0,1,2.382-2.6H9.15a2.392,2.392,0,0,1,2.394,2.055,15.314,15.314,0,0,0,.838,3.357,2.386,2.386,0,0,1-.539,2.521l-1.52,1.517A19.131,19.131,0,0,0,17.5,19.311l1.52-1.517a2.4,2.4,0,0,1,2.525-.538,15.392,15.392,0,0,0,3.363.836A2.39,2.39,0,0,1,26.971,20.517Z" transform="translate(-2.167 -0.396)" fill="none" stroke="#2f6044" stroke-linecap="round" stroke-linejoin="round" stroke-width="2"/>
</svg>
