<svg xmlns="http://www.w3.org/2000/svg" width="22.924" height="18.66" viewBox="0 0 22.924 18.66">
  <g id="Group_1308" data-name="Group 1308" transform="translate(5722.66 -652.26) rotate(90)">
    <g id="_arrow-left" data-name=" arrow-left" transform="translate(670.92 5703.195) rotate(90)">
      <g id="arrow-left" transform="translate(0 0)">
        <path id="Vector" d="M5.759,12.315.468,7.246a1.5,1.5,0,0,1,0-2.177L5.759,0" transform="translate(6.409 3.172)" fill="none" stroke="#5b5858" stroke-linecap="round" stroke-linejoin="round" stroke-width="2"/>
        <path id="Vector-2" data-name="Vector" d="M0,0H19.465V18.66H0Z" transform="translate(19.465 18.66) rotate(180)" fill="none" opacity="0"/>
      </g>
    </g>
    <g id="_arrow-left-2" data-name=" arrow-left" transform="translate(670.92 5699.736) rotate(90)">
      <g id="arrow-left-2" data-name="arrow-left" transform="translate(0 0)">
        <path id="Vector-3" data-name="Vector" d="M5.759,12.315.468,7.246a1.5,1.5,0,0,1,0-2.177L5.759,0" transform="translate(6.409 3.172)" fill="none" stroke="#5b5858" stroke-linecap="round" stroke-linejoin="round" stroke-width="2"/>
        <path id="Vector-4" data-name="Vector" d="M0,0H19.465V18.66H0Z" transform="translate(19.465 18.66) rotate(180)" fill="none" opacity="0"/>
      </g>
    </g>
  </g>
</svg>
