<svg xmlns="http://www.w3.org/2000/svg" width="52.83" height="71.976" viewBox="0 0 52.83 71.976">
  <g id="Group_1321" data-name="Group 1321" transform="translate(-158.421 -5765.218)">
    <g id="_arrow-left" data-name=" arrow-left" transform="translate(211.251 5765.218) rotate(90)">
      <g id="arrow-left" transform="translate(0 0)">
        <path id="Vector" d="M15.63,34.868,1.271,20.516a4.372,4.372,0,0,1,0-6.163L15.63,0" transform="translate(17.393 8.981)" fill="none" stroke="#2f6044" stroke-linecap="round" stroke-linejoin="round" stroke-width="5"/>
        <path id="Vector-2" data-name="Vector" d="M0,0H52.83V52.83H0Z" transform="translate(52.83 52.83) rotate(180)" fill="none" opacity="0"/>
      </g>
    </g>
    <g id="_arrow-left-2" data-name=" arrow-left" transform="translate(211.251 5774.153) rotate(90)">
      <g id="arrow-left-2" data-name="arrow-left" transform="translate(0 0)">
        <path id="Vector-3" data-name="Vector" d="M15.63,34.868,1.271,20.516a4.372,4.372,0,0,1,0-6.163L15.63,0" transform="translate(17.393 8.981)" fill="none" stroke="#2f6044" stroke-linecap="round" stroke-linejoin="round" stroke-width="5"/>
        <path id="Vector-4" data-name="Vector" d="M0,0H52.83V52.83H0Z" transform="translate(52.83 52.83) rotate(180)" fill="none" opacity="0"/>
      </g>
    </g>
    <g id="_arrow-left-3" data-name=" arrow-left" transform="translate(211.251 5784.365) rotate(90)">
      <g id="arrow-left-3" data-name="arrow-left" transform="translate(0 0)">
        <path id="Vector-5" data-name="Vector" d="M15.63,34.868,1.271,20.516a4.372,4.372,0,0,1,0-6.163L15.63,0" transform="translate(17.393 8.981)" fill="none" stroke="#2f6044" stroke-linecap="round" stroke-linejoin="round" stroke-width="5"/>
        <path id="Vector-6" data-name="Vector" d="M0,0H52.83V52.83H0Z" transform="translate(52.83 52.83) rotate(180)" fill="none" opacity="0"/>
      </g>
    </g>
  </g>
</svg>
