<svg xmlns="http://www.w3.org/2000/svg" width="25" height="25" viewBox="0 0 25 25">
  <path id="Icon_material-my-location" data-name="Icon material-my-location" d="M14,9.455A4.545,4.545,0,1,0,18.545,14,4.544,4.544,0,0,0,14,9.455Zm10.159,3.409a10.221,10.221,0,0,0-9.023-9.023V1.5H12.864V3.841a10.221,10.221,0,0,0-9.023,9.023H1.5v2.273H3.841a10.221,10.221,0,0,0,9.023,9.023V26.5h2.273V24.159a10.221,10.221,0,0,0,9.023-9.023H26.5V12.864ZM14,21.955A7.955,7.955,0,1,1,21.955,14,7.949,7.949,0,0,1,14,21.955Z" transform="translate(-1.5 -1.5)" fill="#2f6044"/>
</svg>
